<svg id="Layer_1" data-name="Layer 1" xmlns="http://www.w3.org/2000/svg" viewBox="0 0 2011.91 994.38"><defs><style>.cls-1{fill:#fff;}</style></defs><path class="cls-1" d="M1863.13,721.16c-.22-48.08-36.43-84.22-82.71-84.77-48-.58-84.8,37.53-84.74,84.82.06,46,37,84.46,83.63,84C1826.41,805.82,1863.32,767.5,1863.13,721.16Z" transform="translate(-18.75 -528.32)"/><path class="cls-1" d="M1923.21,1519.58l3-1.29c2.73-2.58,5.06-5.63,7.57-8.47q18.12-20.6,36.25-41.2c5.9-6.69,11.94-13.24,17.87-19.93,12-13.59,23.84-27.33,35.93-40.83,3.81-4.21,6.17-8.28,6.79-14V528.32H1351.57v571.46h84.9V613.4h508.78V958.29c-17.55,0-34.73,0-51.87-.09l-3.37-2q-7.35-9.84-14.39-19.83c-16.19-23-32.26-46-48.53-68.9-3.36-4.76-6.53-9.53-12.68-12-19-7.69-37.82-16-56.62-24.19-23.52-10.2-47-20.46-70.47-30.62-3.82-1.66-7.77-4.21-11.71-4.27-44.66-.29-89.38-.15-134.09-.25-2.91,0-4.25,1-5.38,3.59-6.29,13.5-12.7,26.89-19.15,40.34q-12.27,25.62-24.66,51.28c-10.73,22.24-21.4,44.53-32.42,66.66-1.94,3.89-1.51,5.51,2.47,7.4q29.56,13.86,58.76,28.39c4.1,2,5.64,1.32,7.37-2.65,5.09-11.69,10.52-23.19,15.88-34.72,11-23.72,22.08-47.4,33-71.15,1.32-3,2.87-4.14,6.25-4.09,17.36.18,34.71.07,52,.08l3.75.39c-9.12,20.89-18,41.35-27,61.78-9.43,21.34-18.85,42.7-28.55,63.89-4.1,8.94-5.61,18-5.58,27.88.38,54.7.24,164.07.24,164.07l-.27,8.53-5.8-2.28-166.61-55.37s-15.6,51.17-23.36,76.73l266.34,55.25V1075.05l.82-.08c47.56,106.65,95.14,213.25,141.71,317.46-1.08,2.42-1.62,3.76-2.26,5-4.12,7.62-8.33,15.2-12.49,22.78-5.09,9.33-10.23,18.63-15.18,28-1.33,2.48-3,3.35-5.86,3.35q-175.3-.15-350.62-.1l-3.2-.47c3.34-3.84,6.37-7.36,9.45-10.81,7.36-8.07,14.93-16,22-24.25a14.32,14.32,0,0,0,3.07-8.32c.23-23.37.14-102,.12-125.35l-.2-4.72h-86.81v133.6a49.86,49.86,0,0,0-5.58,4.48c-14.74,15.29-29.38,30.71-44.12,46-14,14.44-28.17,28.78-42.14,43.24-4.41,4.55-8.48,9.4-13.21,14.68h678.93Zm-24.14-70.21-4.63,2.06c-16.33.18-32.68.11-49.9.11,12.58-18.78,24.6-36.83,36.82-55.15-8.43-19.24-17.17-38.93-25.74-58.65-9.78-22.55-19.46-45.2-29.3-67.74-7.33-16.89-14.92-33.71-22.29-50.59-8.59-19.74-17-39.51-25.61-59.25-6.37-14.63-13-29.2-19.42-43.83-8.41-19.07-16.77-38.22-25.24-57.28-1.93-4.37,1-7.53,2.48-10.84,6.18-14,12.83-27.86,19.25-41.79,10.14-21.95,20.19-43.9,30.51-66.28,11.38,14.73,22.49,29.24,33.71,43.67,10.41,13.3,21,26.45,31.5,39.68,2.24,2.82,4.8,5.49,6.47,8.63,2.24,4.09,5.52,4.27,9.49,4.27,24.17-.13,48.32-.06,72.52-.06h5.9v6.28q0,173.27.25,346.56a25.86,25.86,0,0,1-7.94,19.53c-8.78,9.07-17.55,18.18-26.22,27.29C1907.42,1440.4,1903.42,1445.08,1899.07,1449.37Z" transform="translate(-18.75 -528.32)"/><path class="cls-1" d="M18.85,730.7c6.23,1.56,9.09,2.08,13.24,2.08,11.69,0,19.74-6.24,19.74-21.29V565.06H25.6V535.2h95.81v29.86H97.78V708.11c0,37.13-18.43,57.64-52.44,57.64-7.79,0-16.1-1-26.49-3.12Z" transform="translate(-18.75 -528.32)"/><path class="cls-1" d="M253.29,684.23c-12.72,19.73-33.49,30.11-60.23,30.11-42.58,0-69.32-23.88-69.32-62.05,0-38.42,27.78-66.46,66.21-66.46,36.86,0,66.46,28.3,63.34,72.43H163.46c.26,14,7.79,30.64,30.12,30.64,10.39,0,17.14-3.38,28.56-14.28Zm-38.68-47.78c-2.08-15.57-11.68-24.92-26-24.92s-22.85,8.05-25.19,24.92Z" transform="translate(-18.75 -528.32)"/><path class="cls-1" d="M415.82,711.49H357.14V701.1c-11.94,8.31-23.36,12.2-35.05,12.2-23.36,0-37.64-14.54-37.64-38.16V617H266.53v-28.3h57.64v76.59c0,12,2.86,15.84,11.94,15.84,6.23,0,13.24-3.12,21-8.83V617H340.79v-28.3h56.08v94.51h18.95Z" transform="translate(-18.75 -528.32)"/><path class="cls-1" d="M583.53,617H562.76v91.65c0,32.45-15.57,60-64.9,60-24.67,0-42.58-4.41-54.53-13.5l19-25.7c10.64,6.23,19.73,8.83,30.37,8.83,23.63,0,30.38-14.8,30.38-30.12V696.17c-13.76,11.68-24.66,16.61-37.39,16.61-29.07,0-51.14-27-51.14-62.83,0-36.08,22.84-63.09,53.22-63.09a42.81,42.81,0,0,1,34.79,16.88H523V588.68h60.49Zm-84.89,2.08c-14.8,0-23.89,12.2-23.89,31.15s9.35,31.42,23.89,31.42c14.28,0,24.4-12.46,24.4-30.9C523,631.26,513.69,619.06,498.64,619.06Z" transform="translate(-18.75 -528.32)"/><path class="cls-1" d="M744.76,711.49H686.08V697c-11.94,11.68-22.32,16.35-35.57,16.35-30.11,0-53-27.52-53-63.86,0-35.83,23.11-63.61,53.22-63.61a46.46,46.46,0,0,1,35.31,16.35V563.5h-19V535.2h58.68v148h19ZM661.68,618c-14.8,0-23.89,12.2-23.89,32.19,0,19.74,9.35,32.72,24.15,32.72,12.2,0,24.66-9.61,24.66-33.49C686.6,631,677.26,618,661.68,618Z" transform="translate(-18.75 -528.32)"/><path class="cls-1" d="M756.7,683.19h18.95V563.5H756.7V535.2h58.67v63.35c14.8-9.87,22.59-12.72,34.79-12.72,25.45,0,38.17,17.65,38.17,38.42v58.94h17.91v28.3H848.61V632.82c0-10.65-3.64-14.8-12.47-14.8-6.49,0-11.94,2.08-20.77,7.53v57.64h17.92v28.3H756.7Z" transform="translate(-18.75 -528.32)"/><path class="cls-1" d="M1064.87,711.49H1006.2V701.1c-12,8.31-23.37,12.2-35.05,12.2-23.37,0-37.65-14.54-37.65-38.16V617H915.59v-28.3h57.64v76.59c0,12,2.85,15.84,11.94,15.84,6.23,0,13.24-3.12,21-8.83V617H989.84v-28.3h56.08v94.51h18.95Z" transform="translate(-18.75 -528.32)"/><path class="cls-1" d="M1085.38,588.68H1143v94.51h17.91v28.3h-75.55v-28.3h17.91V617h-17.91Zm59.71-35a21.49,21.49,0,0,1-21.54,21.55,21.27,21.27,0,0,1-21.29-21.55,21.06,21.06,0,0,1,21.29-21.29A21.27,21.27,0,0,1,1145.09,553.63Z" transform="translate(-18.75 -528.32)"/><path class="cls-1" d="M1181.18,669.17h28.56c.26,5.71,2.07,9.34,7.79,13.76,4.93,3.63,11.42,5.19,19.47,5.19,11.94,0,20-4.67,20-11.94,0-17.92-46.47-6-71.4-30.9A32,32,0,0,1,1176.5,623c0-21,19-36.09,45.44-36.09a79.78,79.78,0,0,1,30.89,6v-4.16h28.05v35.57h-28.05c-2.33-8.57-11.16-12.72-26.74-12.72-10.38,0-16.87,3.89-16.87,9.35,0,17.13,80,.77,80,51.66,0,23.89-16.61,41.28-48.29,41.28-17.65,0-25.44-3.11-31.15-8.56v6.23h-28.56Z" transform="translate(-18.75 -528.32)"/><path class="cls-1" d="M25.43,1178.44H52.17V1061.87H25.43V1032h92.16c31.94,0,54,6,71.92,23.89,17.66,17.65,25.19,40.5,25.19,64.64,0,45.7-28.3,87.76-84.38,87.76H25.43Zm90.09,0c35.05,0,51.4-22.59,51.4-57.64,0-37.9-18.69-58.93-53-58.93H98.12v116.57Z" transform="translate(-18.75 -528.32)"/><path class="cls-1" d="M364.23,1181c-12.72,19.73-33.49,30.11-60.23,30.11-42.58,0-69.32-23.88-69.32-62.05,0-38.42,27.78-66.46,66.2-66.46,36.87,0,66.47,28.3,63.35,72.44H274.4c.26,14,7.79,30.63,30.12,30.63,10.38,0,17.13-3.37,28.56-14.28Zm-38.68-47.77c-2.08-15.58-11.69-24.93-26-24.93s-22.84,8.05-25.18,24.93Z" transform="translate(-18.75 -528.32)"/><path class="cls-1" d="M383.18,1085.5h58.68v11.42c12.72-9.35,22.85-13.24,35.31-13.24,16.35,0,37.38,8.82,37.38,41.8V1180h17.92v28.3H474.83v-77.89c0-9.87-4.15-13.76-11.42-13.76-6.75,0-14.28,2.86-21.55,8V1180h16.35v28.3h-75V1180h18.95v-66.21H383.18Z" transform="translate(-18.75 -528.32)"/><path class="cls-1" d="M20.49,1343.56h82.05v29.86H87.22V1463c0,17.39,5.19,29.08,22.84,29.08,14.8,0,24.41-7.53,24.41-27.53v-91.12H119.93v-29.86h68v29.86H165.89v98.65c0,41-35.83,49.85-60.76,49.85-34.53,0-63.87-13.24-63.87-56.34v-92.16H20.49Z" transform="translate(-18.75 -528.32)"/><path class="cls-1" d="M203.78,1397h57.64v94.51h17.91v28.3H203.78v-28.3H221.7v-66.21H203.78Zm59.72-35A21.5,21.5,0,0,1,242,1383.54,21.28,21.28,0,0,1,220.66,1362,21.06,21.06,0,0,1,242,1340.7,21.28,21.28,0,0,1,263.5,1362Z" transform="translate(-18.75 -528.32)"/><path class="cls-1" d="M289.46,1397H305v-19.21l39.73-28V1397h22.06v28.3H344.76v53.22c0,10.65,1.81,12.73,10.12,12.73,4.16,0,6.49-.52,11.94-2.34v26.48a75.33,75.33,0,0,1-29.33,6.23c-15.58,0-32.46-7.53-32.46-29.33v-67H289.46Z" transform="translate(-18.75 -528.32)"/><path class="cls-1" d="M390.71,1425.34H372.79V1397H445v28.3H432.25l19.21,55.82,22.85-55.82H461.59V1397h62.05v28.3H505.72l-40,96.32H432.25Z" transform="translate(-18.75 -528.32)"/><path class="cls-1" d="M531.94,1491.55h18.95V1371.86H531.94v-28.3h58.68v148h17.65v28.3H531.94Z" transform="translate(-18.75 -528.32)"/><path class="cls-1" d="M767.42,1519.85H708.74v-10.39c-11.94,8.31-23.36,12.2-35,12.2-23.36,0-37.64-14.54-37.64-38.16v-58.16H618.13V1397h57.64v76.59c0,11.95,2.86,15.84,11.94,15.84,6.23,0,13.24-3.12,21-8.83v-55.3H692.39V1397h56.08v94.51h18.95Z" transform="translate(-18.75 -528.32)"/><path class="cls-1" d="M911.25,1446.89h-27c-6.23-13.5-16.62-20.51-30.12-20.51-17.65,0-28.82,12.46-28.82,31.67,0,21.29,10.39,34.28,27.78,34.28,12.2,0,24.15-7.53,31.16-20.26l30.37,13.51c-10.9,24.4-31.15,37.12-59.45,37.12-42.32,0-70.1-25.44-70.1-64.39,0-36.34,26.22-63.09,62-63.09,13.5,0,24.4,3.64,37.13,12V1397h27Z" transform="translate(-18.75 -528.32)"/><path class="cls-1" d="M929.93,1491.55h19V1371.86h-19v-28.3h58.68v63.35c14.8-9.87,22.59-12.72,34.79-12.72,25.44,0,38.17,17.65,38.17,38.42v58.94h17.91v28.3h-57.64v-78.67c0-10.65-3.63-14.8-12.46-14.8-6.49,0-11.94,2.08-20.77,7.53v57.64h17.91v28.3H929.93Z" transform="translate(-18.75 -528.32)"/><path class="cls-1" d="M1090.12,1397h15.58v-19.21l39.72-28V1397h22.07v28.3h-22.07v53.22c0,10.65,1.82,12.73,10.13,12.73,4.15,0,6.49-.52,11.94-2.34v26.48a75.38,75.38,0,0,1-29.34,6.23c-15.57,0-32.45-7.53-32.45-29.33v-67h-15.58Z" transform="translate(-18.75 -528.32)"/><path class="cls-1" d="M1247.58,1182.19,1074,1104.64v24.81c-.32-.43-.66-.73-1-.73-90.52,0-181-.17-271.55.12-10.81,0-14-4-14-14.38,0-55.38-1.42-110.78-.63-166.15.84-59.54-56.56-108.63-108.26-108.37-212.82,1.1-425.66.46-638.49.46-3.26,0-6.53.19-9.78,0-8.18-.46-11.6,2.83-11.5,11.44.36,31.36.45,62.73-.06,94.09-.17,10.41,4.14,13.93,13.78,13.36,5.28-.31,10.6,0,15.9,0h614c18.08,0,18.62.55,18.64,18.45q0,75.77,0,151.53a106.07,106.07,0,0,0,99,106.34c42.19,2.9,84.73.9,127.11.91,55.6,0,111.21-.21,166.81,0v22.77Z" transform="translate(-18.75 -528.32)"/></svg>