<svg height="56" viewBox="0 0 148 56" width="148" xmlns="http://www.w3.org/2000/svg"><path d="m98.5018693 34.9779511c5.4157277 0 8.9459267 3.08934 8.9459267 7.7425901v12.7179334h-4.974393v-2.8085773h-.561526c-.642286 1.3244779-2.0460995 3.3701027-6.2584903 3.3701027-4.4936287 0-7.4627775-2.4071484-7.4627775-6.2185853 0-3.1691508 2.769147-5.3753471 6.5796338-5.7772511l7.622874-.8422881v-.4812397c0-1.8860033-1.444669-3.3701027-4.1720104-3.3701027-2.6480057 0-4.2931517 1.3643833-5.5368688 3.4503885l-4.0917246-2.6480057c2.367243-2.9681987 5.054679-5.1349648 9.9093561-5.1349648zm22.4671927 0c5.415728 0 8.945927 3.08934 8.945927 7.7425901v12.7179334h-4.974393v-2.8085773h-.561526c-.642286 1.3244779-2.046099 3.3701027-6.25849 3.3701027-4.493629 0-7.462778-2.4071484-7.462778-6.2185853 0-3.1691508 2.769147-5.3753471 6.579634-5.7772511l7.622874-.8422881v-.4812397c0-1.8860033-1.444669-3.3701027-4.17201-3.3701027-2.648006 0-4.293152 1.3643833-5.536869 3.4503885l-4.091725-2.6480057c2.367243-2.9681987 5.054679-5.1349648 9.909356-5.1349648zm-42.5681879.2403823c3.6508654 0 6.5796339 2.7686719 6.5796339 6.900777v13.3193642h-5.054679v-12.9184104c0-1.8451478-1.324478-2.888388-3.2499116-2.888388-2.0864803 0-3.610485 1.2038117-3.610485 3.6907708v12.1160276h-5.0551541v-12.9184104c0-1.8451478-1.3240028-2.888388-3.2499115-2.888388-2.0864803 0-3.610485 1.2038117-3.610485 3.6907708v12.1160276h-5.054679v-19.8989981h4.9743932v2.9686738h.5615254c.8422882-1.9259087 2.4874342-3.2898169 5.255631-3.2898169 2.5672449 0 4.4532482 1.3639082 5.2955364 3.3701027h.5615254c.8831436-1.8456229 2.4874341-3.3701027 5.6570599-3.3701027zm63.3901399-5.8570618v6.1782049h5.456583v4.332582h-5.456583v10.0300224c0 .8019077.401904 1.2038117 1.123526 1.2038117h3.209531v4.332582h-5.456108c-2.247051 0-3.931628-1.6042905-3.931628-3.8513424v-11.7150737h-5.054679v-4.332582h5.054679v-6.1782049zm-99.5712376-29.3612716v55.4385221h-5.0561042v-55.4385221zm60.1733406 46.6925497-6.0979191.7225721c-1.8860034.2403823-2.8085773.9225739-2.8085773 2.0855301 0 1.3643833 1.1639063 2.3273377 3.4100081 2.3273377 3.5306743 0 5.4964883-2.0864803 5.4964883-4.8147718zm22.467193 0-6.097919.7225721c-1.886003.2403823-2.808577.9225739-2.808577 2.0855301 0 1.3643833 1.163906 2.3273377 3.410008 2.3273377 3.530674 0 5.496488-2.0864803 5.496488-4.8147718zm-101.5565296-38.5075327v8.8285859h-10.8134026l7.1007789 7.1007789h3.7126237v8.8276358h-14.47519445v14.3117725h-8.82858595v-23.1394083h7.10552949l-7.09935366-7.1007789h-.00617583v-8.8285859zm55.05106-.56261808c5.8575369 0 10.4309762 4.25229618 10.4309762 10.51078688 0 6.2589658-4.5734393 10.511262-10.4309762 10.511262-5.8575368 0-10.4309762-4.2522962-10.4309762-10.511262 0-6.2584907 4.5734394-10.51078688 10.4309762-10.51078688zm-13.039124-7.6222564v4.332582h-3.0489596c-.722097 0-1.124001.40095386-1.124001 1.20333664v2.64800571h5.2157257v4.33258203h-5.2157257v15.566416h-5.054679v-15.566416h-3.4632152v-4.33258203h3.4632152v-4.09219971c0-2.32686257 1.6855264-4.09172464 4.011914-4.09172464zm39.1969456 8.10363856v4.57343932h-2.969149c-2.567245 0-4.4128679 1.3643833-4.4128679 4.1720105v11.233834h-5.054679v-19.89899803h4.9743932v2.88886303h.5620005c.7624774-2.20714646 2.4470542-2.96914882 4.9748682-2.96914882zm-26.1578216 4.01177142c-3.2095311 0-5.3762972 2.4071483-5.3762972 6.0176333 0 3.6109601 2.1667661 6.0181085 5.3762972 6.0181085 3.2095312 0 5.3753471-2.4071484 5.3753471-6.0181085 0-3.610485-2.1658159-6.0176333-5.3753471-6.0176333z" fill-rule="evenodd"/></svg>